<svg id="Komponente_11_1" data-name="Komponente 11 – 1" xmlns="http://www.w3.org/2000/svg" width="354" height="159.334" viewBox="0 0 354 159.334">
  <text id="Strict_compliance" data-name="Strict compliance" transform="translate(0 70.334)" fill="#3d4d62" font-size="20" font-family="IBMPlexSans-Bold, IBM Plex Sans" font-weight="700"><tspan x="0" y="21">Strict compliance</tspan></text>
  <text id="We_make_sure_you_are_compliant_with_regulations_to_mitigate_customs-related_risk_and_exposure." data-name="We make sure you are compliant with regulations to mitigate customs-related risk and exposure." transform="translate(0 114.334)" fill="#3d4d62" font-size="16" font-family="IBMPlexSans, IBM Plex Sans"><tspan x="0" y="16">We make sure you are compliant with regulations </tspan><tspan x="0" y="40">to mitigate customs-related risk and exposure.</tspan></text>
  <g id="strict_compliance-2" data-name="strict compliance" transform="translate(-47.037 0)">
    <g id="Gruppe_517" data-name="Gruppe 517" transform="translate(47.037 0)">
      <g id="Gruppe_516" data-name="Gruppe 516" transform="translate(0 0)">
        <path id="Pfad_143" data-name="Pfad 143" d="M81.474,6.58H76.93V4.548c0-.658-.717-.957-1.375-.957H72.028A5.348,5.348,0,0,0,66.707,0a5.44,5.44,0,0,0-5.321,3.587H57.918c-.658,0-1.315.3-1.315.957V6.58H52.059a5.082,5.082,0,0,0-5.022,4.843V45.68a4.81,4.81,0,0,0,5.022,4.544H81.474A4.81,4.81,0,0,0,86.5,45.68V11.423A5.082,5.082,0,0,0,81.474,6.58Zm-22.479-.6h3.288a1.315,1.315,0,0,0,1.136-1.076,3.468,3.468,0,0,1,3.288-2.69,3.408,3.408,0,0,1,3.228,2.69,1.315,1.315,0,0,0,1.2,1.076h3.408v4.783H58.994ZM84.1,45.68a2.425,2.425,0,0,1-2.631,2.152H52.059a2.425,2.425,0,0,1-2.631-2.152V11.423a2.69,2.69,0,0,1,2.631-2.451H56.6v3.049a1.256,1.256,0,0,0,1.315,1.136H75.555a1.315,1.315,0,0,0,1.375-1.136V8.972h4.544A2.69,2.69,0,0,1,84.1,11.423V45.68Z" transform="translate(-47.037 0)" fill="#01a4b7"/>
        <path id="Pfad_144" data-name="Pfad 144" d="M108.517,230.684a1.2,1.2,0,0,0-1.674-.06l-3.826,3.647L101.4,232.6a1.2,1.2,0,0,0-1.674-.06,1.255,1.255,0,0,0,0,1.734l2.451,2.511a1.076,1.076,0,0,0,.837.359,1.2,1.2,0,0,0,.837-.359l4.663-4.424a1.136,1.136,0,0,0,.069-1.6Q108.553,230.717,108.517,230.684Z" transform="translate(-93.391 -203.956)" fill="#01a4b7"/>
        <path id="Pfad_145" data-name="Pfad 145" d="M213.494,256.034H199.744a1.2,1.2,0,1,0,0,2.391h13.751a1.2,1.2,0,1,0,0-2.391Z" transform="translate(-181.21 -226.735)" fill="#01a4b7"/>
        <path id="Pfad_146" data-name="Pfad 146" d="M108.517,147.092a1.2,1.2,0,0,0-1.674-.06l-3.826,3.647-1.614-1.674a1.2,1.2,0,0,0-1.674-.06,1.255,1.255,0,0,0,0,1.734l2.451,2.511a1.076,1.076,0,0,0,.837.359,1.2,1.2,0,0,0,.837-.359l4.663-4.424a1.136,1.136,0,0,0,.069-1.6Q108.553,147.125,108.517,147.092Z" transform="translate(-93.391 -129.93)" fill="#01a4b7"/>
        <path id="Pfad_147" data-name="Pfad 147" d="M213.494,172.442H199.744a1.2,1.2,0,0,0,0,2.391h13.751a1.2,1.2,0,1,0,0-2.391Z" transform="translate(-181.21 -152.709)" fill="#01a4b7"/>
        <path id="Pfad_148" data-name="Pfad 148" d="M108.517,314.276a1.2,1.2,0,0,0-1.674-.06l-3.826,3.647-1.614-1.674a1.2,1.2,0,0,0-1.674-.06,1.255,1.255,0,0,0,0,1.734l2.451,2.511a1.076,1.076,0,0,0,.837.359,1.2,1.2,0,0,0,.837-.359l4.663-4.424a1.136,1.136,0,0,0,.069-1.6Q108.553,314.309,108.517,314.276Z" transform="translate(-93.391 -277.982)" fill="#01a4b7"/>
        <path id="Pfad_149" data-name="Pfad 149" d="M213.494,339.626H199.744a1.2,1.2,0,0,0,0,2.391h13.751a1.2,1.2,0,1,0,0-2.391Z" transform="translate(-181.21 -300.761)" fill="#01a4b7"/>
      </g>
    </g>
  </g>
</svg>
