<svg id="Komponente_12_1" data-name="Komponente 12 – 1" xmlns="http://www.w3.org/2000/svg" width="354.334" height="183.334" viewBox="0 0 354.334 183.334">
  <text id="Qualified_professionals" data-name="Qualified professionals" transform="translate(0.334 70.334)" fill="#3d4d62" font-size="20" font-family="IBMPlexSans-Bold, IBM Plex Sans" font-weight="700"><tspan x="0" y="21">Qualified professionals</tspan></text>
  <text id="Our_highly_skilled_professionals_offer_customs_expert_advice_to_optimise_your_duty_management_and_help_you_save_costs." data-name="Our highly skilled professionals offer customs expert advice to optimise your duty management and help you save costs." transform="translate(0.334 114.334)" fill="#3d4d62" font-size="16" font-family="IBMPlexSans, IBM Plex Sans"><tspan x="0" y="16">Our highly skilled professionals offer customs </tspan><tspan x="0" y="40">expert advice to optimise your duty management </tspan><tspan x="0" y="64">and help you save costs.</tspan></text>
  <g id="qualified_professionals-2" data-name="qualified professionals">
    <path id="Pfad_136" data-name="Pfad 136" d="M49.425,27.361a3.1,3.1,0,0,0,0-4.388,1.631,1.631,0,0,1-.259-1.965,3.106,3.106,0,0,0-1.136-4.238,1.63,1.63,0,0,1-.759-1.831,3.1,3.1,0,0,0-2.194-3.8,1.631,1.631,0,0,1-1.207-1.573,3.106,3.106,0,0,0-3.1-3.1A1.63,1.63,0,0,1,39.2,5.256a3.1,3.1,0,0,0-3.8-2.194A1.631,1.631,0,0,1,33.565,2.3a3.1,3.1,0,0,0-4.238-1.136A1.631,1.631,0,0,1,27.361.909a3.1,3.1,0,0,0-4.388,0,1.63,1.63,0,0,1-1.965.259A3.106,3.106,0,0,0,16.769,2.3a1.631,1.631,0,0,1-1.831.759,3.107,3.107,0,0,0-3.8,2.194A1.63,1.63,0,0,1,9.565,6.462a3.106,3.106,0,0,0-3.1,3.1,1.63,1.63,0,0,1-1.207,1.573,3.106,3.106,0,0,0-2.194,3.8A1.63,1.63,0,0,1,2.3,16.769a3.106,3.106,0,0,0-1.136,4.238,1.63,1.63,0,0,1-.259,1.965,3.1,3.1,0,0,0,0,4.388,1.631,1.631,0,0,1,.259,1.965A3.106,3.106,0,0,0,2.3,33.565,1.631,1.631,0,0,1,3.062,35.4a3.1,3.1,0,0,0,2.194,3.8,1.631,1.631,0,0,1,1.207,1.573,3.106,3.106,0,0,0,3.1,3.1,1.63,1.63,0,0,1,1.573,1.207,3.1,3.1,0,0,0,3.8,2.194,1.63,1.63,0,0,1,1.831.759,3.1,3.1,0,0,0,4.238,1.136,1.631,1.631,0,0,1,1.965.259,3.1,3.1,0,0,0,4.388,0,1.631,1.631,0,0,1,1.965-.259,3.106,3.106,0,0,0,4.238-1.136,1.631,1.631,0,0,1,1.831-.759,3.1,3.1,0,0,0,3.8-2.194,1.63,1.63,0,0,1,1.573-1.207,3.106,3.106,0,0,0,3.1-3.1A1.63,1.63,0,0,1,45.078,39.2a3.1,3.1,0,0,0,2.194-3.8,1.63,1.63,0,0,1,.759-1.831,3.1,3.1,0,0,0,1.136-4.238,1.631,1.631,0,0,1,.259-1.965Zm-1.043-1.043a3.107,3.107,0,0,0-.493,3.745,1.628,1.628,0,0,1-.6,2.224,3.107,3.107,0,0,0-1.446,3.49A1.628,1.628,0,0,1,44.7,37.772a3.107,3.107,0,0,0-2.3,3A1.63,1.63,0,0,1,40.769,42.4a3.107,3.107,0,0,0-3,2.3,1.63,1.63,0,0,1-1.994,1.151,3.107,3.107,0,0,0-3.49,1.446,1.63,1.63,0,0,1-2.224.6,3.107,3.107,0,0,0-3.745.493,1.628,1.628,0,0,1-2.3,0,3.107,3.107,0,0,0-3.745-.493,1.628,1.628,0,0,1-2.224-.6,3.107,3.107,0,0,0-3.49-1.446A1.628,1.628,0,0,1,12.562,44.7a3.107,3.107,0,0,0-3-2.3,1.63,1.63,0,0,1-1.628-1.628,3.107,3.107,0,0,0-2.3-3,1.628,1.628,0,0,1-1.151-1.994,3.107,3.107,0,0,0-1.446-3.49,1.63,1.63,0,0,1-.6-2.224,3.107,3.107,0,0,0-.493-3.745,1.63,1.63,0,0,1,0-2.3,3.107,3.107,0,0,0,.493-3.745,1.63,1.63,0,0,1,.6-2.224,3.107,3.107,0,0,0,1.446-3.49,1.63,1.63,0,0,1,1.151-1.994,3.107,3.107,0,0,0,2.3-3A1.63,1.63,0,0,1,9.565,7.937a3.107,3.107,0,0,0,3-2.3,1.63,1.63,0,0,1,1.994-1.151,3.107,3.107,0,0,0,3.49-1.446,1.63,1.63,0,0,1,2.224-.6,3.107,3.107,0,0,0,3.745-.493,1.629,1.629,0,0,1,2.3,0,3.107,3.107,0,0,0,3.745.493,1.628,1.628,0,0,1,2.224.6,3.107,3.107,0,0,0,3.49,1.446,1.628,1.628,0,0,1,1.994,1.151,3.107,3.107,0,0,0,3,2.3A1.63,1.63,0,0,1,42.4,9.565a3.107,3.107,0,0,0,2.3,3,1.628,1.628,0,0,1,1.151,1.994,3.107,3.107,0,0,0,1.446,3.49,1.63,1.63,0,0,1,.6,2.224,3.107,3.107,0,0,0,.493,3.745,1.63,1.63,0,0,1,0,2.3Z" transform="translate(0)" fill="#01a4b7"/>
    <path id="Pfad_137" data-name="Pfad 137" d="M133.37,146.74A13.37,13.37,0,1,0,120,133.37,13.385,13.385,0,0,0,133.37,146.74Zm0-25.265a11.9,11.9,0,1,1-11.9,11.9A11.909,11.909,0,0,1,133.37,121.475Z" transform="translate(-108.203 -108.203)" fill="#01a4b7"/>
    <path id="Pfad_138" data-name="Pfad 138" d="M208.661,160.322a5.161,5.161,0,1,0-5.161-5.161A5.167,5.167,0,0,0,208.661,160.322Zm0-8.848a3.687,3.687,0,1,1-3.687,3.687A3.691,3.691,0,0,1,208.661,151.475Z" transform="translate(-183.494 -135.254)" fill="#01a4b7"/>
    <path id="Pfad_139" data-name="Pfad 139" d="M166.116,274.318a10.422,10.422,0,0,0,17.456,0,.738.738,0,0,0,.12-.4v-.228A3.691,3.691,0,0,0,180.006,270H169.683A3.691,3.691,0,0,0,166,273.687v.228A.737.737,0,0,0,166.116,274.318Zm1.354-.631a2.214,2.214,0,0,1,2.212-2.212h10.323a2.214,2.214,0,0,1,2.212,2.212,8.942,8.942,0,0,1-14.747,0Z" transform="translate(-149.677 -243.457)" fill="#01a4b7"/>
    <path id="Pfad_140" data-name="Pfad 140" d="M79.268,60a19.273,19.273,0,0,0-12.5,4.6.737.737,0,0,0,.957,1.122,17.8,17.8,0,1,1-2,2,.737.737,0,0,0-1.122-.957A19.268,19.268,0,1,0,79.268,60Z" transform="translate(-54.102 -54.102)" fill="#01a4b7"/>
  </g>
</svg>
