<svg id="Komponente_13_1" data-name="Komponente 13 – 1" xmlns="http://www.w3.org/2000/svg" width="354" height="159.334" viewBox="0 0 354 159.334">
  <text id="Online_and_real-time_control" data-name="Online and real-time control" transform="translate(0 70.334)" fill="#3d4d62" font-size="20" font-family="IBMPlexSans-Bold, IBM Plex Sans" font-weight="700"><tspan x="0" y="21">Online and real-time control</tspan></text>
  <text id="Real-time_compliance_and_finance_dashboards_to_manage_your_customer_portfolio." data-name="Real-time compliance and finance dashboards to manage your customer portfolio." transform="translate(0 114.334)" fill="#3d4d62" font-size="16" font-family="IBMPlexSans, IBM Plex Sans"><tspan x="0" y="16">Real-time compliance and finance dashboards to </tspan><tspan x="0" y="40">manage your customer portfolio.</tspan></text>
  <g id="real_time_control" data-name="real time control" transform="translate(-61.369)">
    <g id="Gruppe_513" data-name="Gruppe 513" transform="translate(61.369)">
      <g id="Gruppe_512" data-name="Gruppe 512" transform="translate(0)">
        <path id="Pfad_141" data-name="Pfad 141" d="M93.188,20.6a15.82,15.82,0,0,0,3.282-9.7V7.043H98.5A1.136,1.136,0,0,0,99.64,5.907V1.136A1.136,1.136,0,0,0,98.5,0h-36a1.136,1.136,0,0,0-1.136,1.136V5.907A1.136,1.136,0,0,0,62.5,7.043h2.034v3.864a15.82,15.82,0,0,0,3.282,9.7,16.118,16.118,0,0,0,5.508,4.564,16.115,16.115,0,0,0-5.508,4.564,15.82,15.82,0,0,0-3.282,9.7V43.3H62.5a1.136,1.136,0,0,0-1.136,1.136V49.2A1.136,1.136,0,0,0,62.5,50.338h36A1.136,1.136,0,0,0,99.64,49.2V44.431A1.136,1.136,0,0,0,98.5,43.295H96.47V39.431a15.82,15.82,0,0,0-3.282-9.7,16.119,16.119,0,0,0-5.508-4.564A16.115,16.115,0,0,0,93.188,20.6ZM63.641,4.771v-2.5H97.368v2.5H63.641ZM66.81,39.431h0a13.749,13.749,0,0,1,9.927-13.17,1.134,1.134,0,0,0,.31-.143v2.444A11.442,11.442,0,0,0,69.082,39.45v3.845H66.81ZM78.439,19.8a9.142,9.142,0,0,1-6.235-5.06H88.8a9.141,9.141,0,0,1-6.235,5.06,1.136,1.136,0,0,0-.879,1.107v8.519a1.136,1.136,0,0,0,.88,1.107,9.226,9.226,0,0,1,7.086,8.916v3.845h-18.3V39.45a9.225,9.225,0,0,1,7.086-8.916,1.136,1.136,0,0,0,.88-1.107V20.908A1.136,1.136,0,0,0,78.439,19.8ZM97.368,45.566v2.5H63.641v-2.5H97.368ZM94.2,39.431v3.864H91.927V39.45a11.442,11.442,0,0,0-7.965-10.887V26.118a1.131,1.131,0,0,0,.31.143A13.749,13.749,0,0,1,94.2,39.431ZM84.272,24.077a1.136,1.136,0,0,0-.31.143V21.774a11.411,11.411,0,0,0,7.56-7.867,1.136,1.136,0,0,0-1.1-1.436H70.583a1.136,1.136,0,0,0-1.1,1.436,11.412,11.412,0,0,0,7.56,7.867v2.445a1.132,1.132,0,0,0-.31-.143,13.749,13.749,0,0,1-9.927-13.17v-.291H87.164a1.136,1.136,0,1,0,0-2.272H66.81v-1.3H94.2v3.864A13.749,13.749,0,0,1,84.272,24.077Z" transform="translate(-61.369)" fill="#01a4b7"/>
      </g>
    </g>
    <g id="Gruppe_515" data-name="Gruppe 515" transform="translate(89.776 8.345)">
      <g id="Gruppe_514" data-name="Gruppe 514">
        <path id="Pfad_142" data-name="Pfad 142" d="M352.558,85.791a1.064,1.064,0,0,0-.065-.213,1.113,1.113,0,0,0-.1-.2,1.075,1.075,0,0,0-.141-.173,1.089,1.089,0,0,0-.173-.141,1.16,1.16,0,0,0-.2-.1,1.2,1.2,0,0,0-.212-.065,1.118,1.118,0,0,0-.444,0,1.151,1.151,0,0,0-.212.065,1.126,1.126,0,0,0-.2.1,1.1,1.1,0,0,0-.314.314,1.128,1.128,0,0,0-.1.2,1.062,1.062,0,0,0-.065.212,1.121,1.121,0,0,0-.023.222,1.141,1.141,0,0,0,.023.223,1.122,1.122,0,0,0,.065.212,1.163,1.163,0,0,0,.1.2,1.084,1.084,0,0,0,.141.173,1.129,1.129,0,0,0,1.026.31,1.113,1.113,0,0,0,.212-.065,1.105,1.105,0,0,0,.368-.245,1.08,1.08,0,0,0,.141-.173,1.154,1.154,0,0,0,.1-.2,1.116,1.116,0,0,0,.065-.212,1.142,1.142,0,0,0,.023-.223A1.127,1.127,0,0,0,352.558,85.791Z" transform="translate(-350.309 -84.877)" fill="#01a4b7"/>
      </g>
    </g>
  </g>
</svg>
