<svg id="Komponente_10_1" data-name="Komponente 10 – 1" xmlns="http://www.w3.org/2000/svg" width="354" height="159.334" viewBox="0 0 354 159.334">
  <text id="Fast_and_accurate" data-name="Fast and accurate" transform="translate(0 70.334)" fill="#3d4d62" font-size="20" font-family="IBMPlexSans-Bold, IBM Plex Sans" font-weight="700"><tspan x="0" y="21">Fast and accurate</tspan></text>
  <text id="We_offer_you_a_full-service_offering_with_fast_and_accurate_customs_in_multiple_countries._" data-name="We offer you a full-service offering with fast and accurate customs in multiple countries.
" transform="translate(0 114.334)" fill="#3d4d62" font-size="16" font-family="IBMPlexSans, IBM Plex Sans"><tspan x="0" y="16">We offer you a full-service offering with fast and </tspan><tspan x="0" y="40">accurate customs in multiple countries.</tspan></text>
  <g id="XMLID_806_" transform="translate(0.424 -10.262)">
    <g id="XMLID_386_" transform="translate(0 10.262)">
      <path id="XMLID_389_" d="M52.823,38.109A20.864,20.864,0,0,0,36.6,19.814V17.187a3.515,3.515,0,0,0-.848-6.925H28.308a3.515,3.515,0,0,0-.848,6.925v2.634a20.756,20.756,0,0,0-10.18,5.6,20.981,20.981,0,0,0-1.755,1.992c-.026,0-.052,0-.078,0H8.08a1.034,1.034,0,1,0,0,2.067h6.038a20.723,20.723,0,0,0-1.834,3.973H1.034a1.034,1.034,0,1,0,0,2.067H11.7a21.018,21.018,0,0,0-.513,3.973H6.616a1.034,1.034,0,0,0,0,2.067h4.6a20.987,20.987,0,0,0,.645,3.973h-6.7a1.034,1.034,0,0,0,0,2.067h7.357A20.878,20.878,0,0,0,29.981,60.965q1.024.1,2.049.1a20.931,20.931,0,0,0,11.4-3.368A1.034,1.034,0,1,0,42.3,55.966a18.813,18.813,0,1,1,5.541-5.548,1.034,1.034,0,1,0,1.734,1.126A20.948,20.948,0,0,0,52.823,38.109ZM26.861,13.777a1.449,1.449,0,0,1,1.447-1.447h7.443a1.447,1.447,0,0,1,0,2.894H28.308A1.449,1.449,0,0,1,26.861,13.777Zm2.666,5.689V17.291h5v2.17A21.062,21.062,0,0,0,29.527,19.466Z" transform="translate(0 -10.262)" fill="#01a4b7"/>
      <path id="XMLID_391_" d="M436.8,425.5a1.034,1.034,0,1,0,.731.3A1.039,1.039,0,0,0,436.8,425.5Z" transform="translate(-390.724 -382.576)" fill="#01a4b7"/>
      <path id="XMLID_394_" d="M170.908,144.609a16.036,16.036,0,1,0,16.036,16.036A16.054,16.054,0,0,0,170.908,144.609Zm0,30a13.968,13.968,0,1,1,13.969-13.968A13.984,13.984,0,0,1,170.908,174.613Z" transform="translate(-138.863 -130.721)" fill="#01a4b7"/>
      <path id="XMLID_397_" d="M269.05,219.714l-5.12,5.12a3.2,3.2,0,0,0-2.838,0l-2.291-2.291A1.034,1.034,0,1,0,257.339,224l2.291,2.291a3.212,3.212,0,1,0,5.762,0l4.97-4.97h0l.15-.15a1.034,1.034,0,1,0-1.462-1.462Zm-6.539,9.146a1.145,1.145,0,1,1,1.145-1.145A1.146,1.146,0,0,1,262.511,228.859Z" transform="translate(-230.466 -197.791)" fill="#01a4b7"/>
      <path id="XMLID_398_" d="M399.646,289.86h-.958a1.034,1.034,0,0,0,0,2.067h.958a1.034,1.034,0,1,0,0-2.067Z" transform="translate(-356.549 -260.957)" fill="#01a4b7"/>
      <path id="XMLID_399_" d="M195.073,289.616h-.958a1.034,1.034,0,1,0,0,2.067h.958a1.034,1.034,0,1,0,0-2.067Z" transform="translate(-173.123 -260.739)" fill="#01a4b7"/>
      <path id="XMLID_400_" d="M301.157,185.844a1.034,1.034,0,0,0,1.034-1.034v-.958a1.034,1.034,0,1,0-2.067,0v.958A1.034,1.034,0,0,0,301.157,185.844Z" transform="translate(-269.099 -164.982)" fill="#01a4b7"/>
      <path id="XMLID_424_" d="M300.913,387.393a1.034,1.034,0,0,0-1.034,1.034v.958a1.034,1.034,0,1,0,2.067,0v-.958A1.034,1.034,0,0,0,300.913,387.393Z" transform="translate(-268.88 -348.408)" fill="#01a4b7"/>
      <path id="XMLID_425_" d="M1.034,351.44a1.034,1.034,0,1,0,.731,1.765,1.034,1.034,0,0,0-.731-1.765Z" transform="translate(0 -316.172)" fill="#01a4b7"/>
    </g>
  </g>
</svg>
